<svg id="visual" viewBox="0 0 900 600" width="900" height="600" xmlns="http://www.w3.org/2000/svg" xmlns:xlink="http://www.w3.org/1999/xlink" version="1.1"><path d="M647 600L737 545L692 491L701 436L674 382L719 327L728 273L755 218L701 164L755 109L719 55L665 0L900 0L900 55L900 109L900 164L900 218L900 273L900 327L900 382L900 436L900 491L900 545L900 600Z" fill="#97d1bf"></path><path d="M305 600L467 545L377 491L377 436L503 382L512 327L503 273L377 218L449 164L467 109L458 55L377 0L666 0L720 55L756 109L702 164L756 218L729 273L720 327L675 382L702 436L693 491L738 545L648 600Z" fill="#e8f3f3"></path><path d="M143 600L143 545L143 491L89 436L152 382L125 327L125 273L98 218L134 164L170 109L116 55L197 0L378 0L459 55L468 109L450 164L378 218L504 273L513 327L504 382L378 436L378 491L468 545L306 600Z" fill="#e8f3f3"></path><path d="M0 600L0 545L0 491L0 436L0 382L0 327L0 273L0 218L0 164L0 109L0 55L0 0L198 0L117 55L171 109L135 164L99 218L126 273L126 327L153 382L90 436L144 491L144 545L144 600Z" fill="#97d1bf"></path></svg>