<svg id="visual" viewBox="0 0 900 600" width="900" height="600" xmlns="http://www.w3.org/2000/svg" xmlns:xlink="http://www.w3.org/1999/xlink" version="1.1"><path d="M0 163L82 145L164 175L245 199L327 151L409 187L491 127L573 145L655 217L736 247L818 181L900 187L900 0L818 0L736 0L655 0L573 0L491 0L409 0L327 0L245 0L164 0L82 0L0 0Z" fill="#97d1bf"></path><path d="M0 295L82 277L164 241L245 277L327 235L409 319L491 253L573 241L655 367L736 367L818 277L900 301L900 185L818 179L736 245L655 215L573 143L491 125L409 185L327 149L245 197L164 173L82 143L0 161Z" fill="#d2ebe8"></path><path d="M0 427L82 457L164 427L245 415L327 457L409 403L491 463L573 403L655 481L736 475L818 433L900 445L900 299L818 275L736 365L655 365L573 239L491 251L409 317L327 233L245 275L164 239L82 275L0 293Z" fill="#f9fafa"></path><path d="M0 541L82 559L164 505L245 511L327 511L409 511L491 523L573 505L655 553L736 529L818 505L900 523L900 443L818 431L736 473L655 479L573 401L491 461L409 401L327 455L245 413L164 425L82 455L0 425Z" fill="#d2ebe8"></path><path d="M0 601L82 601L164 601L245 601L327 601L409 601L491 601L573 601L655 601L736 601L818 601L900 601L900 521L818 503L736 527L655 551L573 503L491 521L409 509L327 509L245 509L164 503L82 557L0 539Z" fill="#97d1bf"></path></svg>