<svg id="visual" viewBox="0 0 540 960" width="540" height="960" xmlns="http://www.w3.org/2000/svg" xmlns:xlink="http://www.w3.org/1999/xlink" version="1.1"><path d="M469 960L415 873L409 785L453 698L431 611L453 524L469 436L399 349L415 262L458 175L409 87L463 0L540 0L540 87L540 175L540 262L540 349L540 436L540 524L540 611L540 698L540 785L540 873L540 960Z" fill="#97d1bf"></path><path d="M215 960L199 873L226 785L237 698L247 611L237 524L193 436L269 349L285 262L296 175L193 87L226 0L464 0L410 87L459 175L416 262L400 349L470 436L454 524L432 611L454 698L410 785L416 873L470 960Z" fill="#e8f3f3"></path><path d="M139 960L91 873L139 785L123 698L150 611L156 524L129 436L204 349L183 262L193 175L112 87L150 0L227 0L194 87L297 175L286 262L270 349L194 436L238 524L248 611L238 698L227 785L200 873L216 960Z" fill="#e8f3f3"></path><path d="M0 960L0 873L0 785L0 698L0 611L0 524L0 436L0 349L0 262L0 175L0 87L0 0L151 0L113 87L194 175L184 262L205 349L130 436L157 524L151 611L124 698L140 785L92 873L140 960Z" fill="#97d1bf"></path></svg>